<?xml version="1.0" encoding="UTF-8" standalone="no"?>
<svg
   version="1.1"
   id="Layer_1"
   x="0px"
   y="0px"
   width="240"
   viewBox="0 0 240 281"
   enable-background="new 0 0 240 199"
   xml:space="preserve"
   sodipodi:docname="hotel.svg"
   inkscape:version="1.4 (e7c3feb100, 2024-10-09)"
   height="281"
   xmlns:inkscape="http://www.inkscape.org/namespaces/inkscape"
   xmlns:sodipodi="http://sodipodi.sourceforge.net/DTD/sodipodi-0.dtd"
   xmlns="http://www.w3.org/2000/svg"
   xmlns:svg="http://www.w3.org/2000/svg"><defs
   id="defs11" /><sodipodi:namedview
   id="namedview11"
   pagecolor="#505050"
   bordercolor="#eeeeee"
   borderopacity="1"
   inkscape:showpageshadow="0"
   inkscape:pageopacity="0"
   inkscape:pagecheckerboard="0"
   inkscape:deskcolor="#505050"
   inkscape:zoom="1.4355334"
   inkscape:cx="63.739375"
   inkscape:cy="173.45469"
   inkscape:window-width="1920"
   inkscape:window-height="1017"
   inkscape:window-x="1600"
   inkscape:window-y="0"
   inkscape:window-maximized="1"
   inkscape:current-layer="Layer_1" />
<path
   fill="#135846"
   opacity="1"
   stroke="none"
   d="m 72,82 c 32.68756,0 65.37512,0 98.52432,0.346782 8.20652,6.259675 10.73505,13.910627 10.66426,23.745238 -0.39322,54.62599 -0.15019,109.25637 -0.27466,163.88489 -0.008,3.6758 -1.24731,7.34879 -1.91392,11.02309 -9.35423,0 -18.70845,0 -28.58044,-0.39365 -1.1516,-4.6248 -2.2575,-8.84768 -2.33194,-13.08867 -0.23647,-13.47226 -0.0777,-26.95129 -0.093,-40.42767 -0.009,-8.23746 -2.39165,-10.89972 -10.51293,-11.03056 -10.64521,-0.17153 -21.29727,-0.16966 -31.94256,-0.001 -8.136071,0.12884 -10.258035,2.77405 -10.592454,10.83747 C 94.19883,244.92761 97.067955,263.0918 93,281 c -9.354225,0 -18.708458,0 -28.584549,-0.36734 -1.483131,-3.12183 -3.275188,-5.87393 -3.283115,-8.63115 C 60.970215,215.59845 60.930378,159.19453 61.10722,102.79153 61.131672,94.991845 63.492634,87.773865 71.161964,83.640487 71.606812,83.400735 71.728127,82.560685 72,82 m 51.5,57 c 7.64044,-0.002 15.28154,-0.0646 22.92105,0.0181 3.91672,0.0424 7.28568,-0.98908 7.37718,-5.40204 0.0916,-4.4155 -3.15912,-5.63936 -7.1398,-5.62786 -16.7756,0.0485 -33.5515,0.0471 -50.327116,0.001 -3.979179,-0.0109 -7.230369,1.21728 -7.129517,5.63679 0.100693,4.41319 3.473763,5.42852 7.387383,5.39256 8.63626,-0.0794 17.2738,-0.0209 26.91082,-0.0186 m -12.96523,45 c 9.66557,-0.006 19.33133,-0.0501 28.9966,9.7e-4 3.36089,0.0178 5.69412,-1.40006 5.70477,-4.78945 0.01,-3.15313 -1.74556,-5.22352 -5.3554,-5.20606 -12.33151,0.0597 -24.66352,0.0136 -36.99524,0.0437 -3.632967,0.009 -4.813265,2.15112 -4.889978,5.51602 -0.08392,3.68133 1.915969,4.55988 5.055438,4.43692 2.16291,-0.0847 4.33215,-0.007 7.48381,-0.002 z"
   id="path1" />


<path
   fill="#135846"
   opacity="1"
   stroke="none"
   d="m 17.468658,280.99961 c -3.543973,-2.57011 -6.73589,-5.01527 -9.661831,-7.74546 -2.928698,-2.73281 -3.897549,-6.19445 -3.880135,-10.30875 0.135389,-31.98598 0.42231,-63.97903 -0.152308,-95.95526 -0.157559,-8.7678 8.951548,-18.44176 18.021019,-18.0496 7.316638,0.31637 14.658294,0.0122 21.987785,0.0874 5.337601,0.0548 7.183758,1.87476 7.188595,7.2519 0.03523,39.15017 0.05117,78.30047 -0.06573,117.45031 -0.0065,2.16321 -1.2491,4.32271 -1.911194,6.87671 -10.349087,0.39276 -20.703314,0.39276 -31.5262,0.39276 m 18.531346,-75.49449 c -0.0051,-3.14628 -0.122692,-6.29749 0.01466,-9.43754 0.154045,-3.5217 -1.172734,-5.13262 -4.889847,-5.11138 -3.493262,0.02 -5.225382,1.11847 -5.146408,4.86049 0.143221,6.7863 0.143236,13.57994 1.5e-5,20.36623 -0.07898,3.74235 1.653843,4.84007 5.146767,4.86011 3.717472,0.0213 5.043472,-1.59041 4.889469,-5.11177 -0.137326,-3.14005 -0.01975,-6.29123 -0.01466,-10.42614 z"
   id="path4" />
<path
   fill="#135846"
   opacity="1"
   stroke="none"
   d="m 194.46866,280.99953 c -1.13526,-3.67432 -2.3671,-7.34645 -2.38115,-11.02327 -0.14259,-37.30705 -0.0924,-74.61487 -0.0811,-111.92247 0.002,-7.80432 1.22383,-9.02551 8.93051,-9.04871 6.3289,-0.019 12.65796,-0.0182 18.98686,-0.001 10.94747,0.0296 18.8624,7.04068 18.95435,17.98719 0.26577,31.64249 0.17277,63.289 0.0384,94.93313 -0.032,7.52495 -3.52265,13.24894 -10.59647,16.50167 -0.83731,0.38501 -1.45453,1.24866 -2.24687,2.23198 -10.42735,0.34152 -20.78157,0.34152 -31.60446,0.34152 m 17.89506,-89.97675 c -2.93411,0.0722 -6.34333,-0.63293 -6.32873,4.06912 0.0226,7.29665 0.0368,14.5936 -0.004,21.8901 -0.0216,3.88444 2.56567,4.03531 5.41319,4.014 2.77828,-0.0208 5.52043,0.0338 5.51164,-3.90255 -0.0167,-7.46228 0.15926,-14.93258 -0.18463,-22.37922 -0.0588,-1.27284 -2.3036,-2.44473 -4.40764,-3.69145 z"
   id="path5" />

<path
   fill="#135846"
   opacity="1"
   stroke="none"
   d="m 107.46866,281.00022 c -4.3632,-15.22936 -1.79344,-30.73514 -2.38077,-46.10506 -0.16701,-4.3708 2.4416,-6.77125 6.82448,-6.83905 6.1524,-0.0951 12.30994,-0.12111 18.46057,0.0239 4.14052,0.0976 6.52115,2.47091 6.55028,6.60485 0.0938,13.30533 0.10283,26.61263 -0.0546,39.91681 -0.0223,1.88134 -1.15106,3.74958 -1.81814,6.01122 -9.07138,0.38736 -18.09227,0.38736 -27.58182,0.38736 z"
   id="path7" />




<path
   fill="#e23428"
   opacity="1"
   stroke="none"
   d="m 123.57139,0 c 3.52416,5.944122 6.48547,11.965658 9.82806,17.767541 0.67447,1.170729 2.75715,2.028378 4.25299,2.132313 4.14273,0.287842 8.36311,-0.25582 12.4617,0.257118 1.97665,0.247379 4.77847,1.767706 5.34372,3.369165 0.65765,1.863295 -0.0633,4.966509 -1.35646,6.611206 -2.86057,3.638068 -6.45516,6.698737 -9.74836,9.996939 -4.30383,4.310402 -4.37788,7.31258 -1.38864,12.514721 1.9789,3.443852 1.98951,7.119766 -1.33641,10.280575 -3.09993,2.946033 -5.76462,2.836185 -9.12449,0.228855 -3.02404,-2.346722 -6.59712,-3.995163 -9.97504,-5.866734 -0.50685,-0.280822 -1.39249,-0.342094 -1.89604,-0.09065 -3.72191,1.858509 -7.70772,3.401333 -10.98968,5.869114 -3.38271,2.543541 -5.96718,2.857117 -9.15045,-0.0155 -3.42913,-3.094483 -3.46834,-6.826683 -1.56588,-10.277543 3.14097,-5.697383 3.11237,-8.23693 -1.513,-12.871894 -3.17476,-3.181359 -6.64301,-6.133091 -9.39432,-9.646206 -1.30824,-1.670496 -2.2471,-4.826494 -1.52975,-6.551007 0.71861,-1.727525 3.57937,-3.0149 5.73904,-3.570182 2.34282,-0.602375 4.96009,-0.137717 7.45768,-0.137772 9.01205,-2.02e-4 9.65305,-0.482981 13.10607,-8.49143 1.5763,-3.65581 3.44792,-7.184281 5.19666,-11.13957 C 119.7142,1e-6 121.42857,1e-6 123.57139,0 Z"
   id="path2" /><path
   fill="#e23428"
   opacity="1"
   stroke="none"
   d="M 14.463037,82.000001 C 11.69636,77.881005 12.377112,72.56202 7.9292887,69.144227 c -2.856103,-2.194679 0.658937,-5.218803 1.964186,-5.242203 5.5708463,-0.09988 7.3087983,-4.873378 10.5279093,-7.759845 3.579546,2.513523 4.930566,7.165851 10.422926,7.571621 3.50067,0.258613 3.61137,3.801025 1.26059,6.814277 -1.40465,1.800469 -2.0628,4.173538 -3.12452,6.254509 -0.79814,1.564362 -1.7045,3.073494 -2.27161,4.912316 -3.73346,0.305099 -7.758005,0.305099 -12.245733,0.305099 z"
   id="path3" /><path
   fill="#e23428"
   opacity="1"
   stroke="none"
   d="m 215.46303,82.000001 c -2.76668,-4.119003 -2.08594,-9.437996 -6.53377,-12.855789 -2.85609,-2.194679 0.65903,-5.218811 1.96421,-5.242195 5.57087,-0.09984 7.3088,-4.873379 10.52789,-7.759827 3.5796,2.513451 4.93056,7.165878 10.42294,7.571602 3.50066,0.258583 3.61138,3.801048 1.26061,6.814278 -1.40464,1.800476 -2.06279,4.173538 -3.12453,6.254509 -0.79814,1.564346 -1.7045,3.073486 -2.27161,4.912307 -3.73347,0.305115 -7.75801,0.305115 -12.24574,0.305115 z"
   id="path4-3" /><path
   fill="#e23428"
   opacity="1"
   stroke="none"
   d="m 64.77357,58.254075 c -1.46203,-0.396526 -2.8194,-0.978569 -3.79137,-0.591877 -3.5935,1.42968 -6.11721,0.118733 -7.05141,-3.460625 -0.61953,-2.373695 -1.49799,-5.056533 -3.15367,-6.702674 -3.19819,-3.179749 -1.3291,-6.155278 1.13466,-6.549416 5.17109,-0.82724 7.60112,-4.451599 10.29376,-7.955856 3.79456,2.648395 5.13981,7.316311 10.63981,7.721698 3.50345,0.258229 3.60884,3.799069 1.25204,6.821137 -1.40515,1.801769 -2.24095,4.106605 -3.06748,6.285877 -1.07695,2.839523 -1.88736,5.78331 -6.25634,4.431736 z"
   id="path5-6" /><path
   fill="#e23428"
   opacity="1"
   stroke="none"
   d="m 187.41854,56.023278 c -2.00037,1.99012 -3.43956,4.509644 -6.36304,1.705368 -0.5633,-0.540336 -2.17999,-0.453506 -3.08118,-0.08878 -3.82492,1.547993 -6.25172,0.08367 -7.05769,-3.936661 -0.41728,-2.081482 -1.27367,-4.509876 -2.76697,-5.852482 -3.37463,-3.034084 -2.16663,-6.491191 0.75153,-6.848682 5.44276,-0.666756 7.27971,-4.973667 10.51963,-7.859192 3.57306,2.482998 4.892,7.185192 10.4141,7.560215 3.49002,0.237019 3.47581,3.729462 1.31221,6.838043 -1.65702,2.380707 -2.33618,5.442006 -3.72859,8.482174 z"
   id="path6" /></svg>
